<svg width="118" height="20" viewBox="0 0 118 20" fill="none" xmlns="http://www.w3.org/2000/svg">
<path d="M16.4102 7.60156C17.3536 4.34005 19.6174 2.72266 23.2832 2.72266C28 2.72276 30.8037 6.46899 30.8037 11.3477C30.8037 16.496 27.7842 20 23.1211 20C19.9946 20 17.6231 18.7601 16.4102 15.6875V19.4072H8V0H16.4102V7.60156ZM85.7529 19.4072H77.3438V15.2295C76.2925 18.5717 73.9204 19.9999 70.3896 20C65.6998 20 62.9767 16.3885 62.9766 11.3213C62.9766 6.4965 65.9957 2.7228 70.8203 2.72266C74.2704 2.72266 76.3464 4.23166 77.3438 7.49316V0H85.7529V19.4072ZM95.5684 2.72266C102.469 2.72272 106.054 5.98389 106.054 11.9678V19.4072H97.9404V17.1699C96.8353 18.8411 94.8674 19.9462 92.1182 19.9463C88.5332 19.9463 86.377 17.8435 86.377 14.9863C86.3771 11.9676 88.8836 9.91897 92.5762 9.91895C94.9481 9.91895 96.5925 10.6474 97.8594 12.1299C97.5359 9.78483 95.5677 8.57129 92.6836 8.57129C90.6622 8.5714 88.5056 9.326 87.0771 10.458V4.90527C89.0179 3.66536 91.8217 2.72266 95.5684 2.72266ZM42.0469 2.72266C49.2975 2.7227 53.2598 6.25385 53.2598 11.1865C53.2596 15.1938 50.6619 18.5063 45.7852 19.6084C45.368 17.8612 43.9988 16.4238 42.0498 16.4238C40.1002 16.4239 38.7311 17.8623 38.3145 19.6104C33.4112 18.5066 30.8068 15.1769 30.8066 11.1865C30.8066 6.28077 34.7423 2.72266 42.0469 2.72266ZM62.2656 19.4072H53.8555V0H62.2656V19.4072ZM95.7842 12.9922C94.5713 12.9922 93.8165 13.6389 93.8164 14.5283C93.8164 15.4448 94.5709 16.0645 95.7568 16.0645C97.0506 16.0645 97.9404 15.4178 97.9404 14.5283C97.9404 13.612 97.0777 12.9923 95.7842 12.9922ZM42.0469 8.49023C40.214 8.49023 39.1631 9.56872 39.1631 11.3477C39.1631 13.1536 40.214 14.2588 42.0469 14.2588C43.8258 14.2587 44.877 13.1536 44.877 11.3477C44.8769 9.56877 43.8257 8.49029 42.0469 8.49023ZM19.1855 8.59863C17.4338 8.59881 16.3828 9.73089 16.3828 11.375C16.3829 13.046 17.4072 14.1514 19.1592 14.1514C20.9111 14.1513 22.043 13.0188 22.043 11.3477C22.0429 9.70349 20.9106 8.59863 19.1855 8.59863ZM74.5674 8.59863C72.8154 8.59863 71.6837 9.67654 71.6836 11.3477C71.6836 13.0457 72.8151 14.1513 74.54 14.1514C76.2919 14.1514 77.3699 12.9922 77.3701 11.3213C77.3701 9.6771 76.3193 8.5987 74.5674 8.59863Z" fill="#121212"/>
</svg>
